/* XPM */
static char * speech_xpm[] = {
"48 43 157 2",
"  	c None",
". 	c #339AFF",
"+ 	c #3499FF",
"@ 	c #3399FF",
"# 	c #3398FF",
"$ 	c #359AFF",
"% 	c #53A9FF",
"& 	c #64B1FF",
"* 	c #74B9FF",
"= 	c #84C1FF",
"- 	c #85C2FF",
"; 	c #77BBFF",
"> 	c #6DB6FF",
", 	c #5FAFFF",
"' 	c #3D9EFF",
") 	c #48A3FF",
"! 	c #8EC7FF",
"~ 	c #C1E0FF",
"{ 	c #F1F8FF",
"] 	c #FFFFFF",
"^ 	c #FEFFFF",
"/ 	c #DDEEFF",
"( 	c #A8D3FF",
"_ 	c #65B2FF",
": 	c #6BB5FF",
"< 	c #C5E2FF",
"[ 	c #FDFEFF",
"} 	c #E9F4FF",
"| 	c #96CBFF",
"1 	c #3E9FFF",
"2 	c #59ACFF",
"3 	c #C9E4FF",
"4 	c #EEF7FF",
"5 	c #89C4FF",
"6 	c #88C3FF",
"7 	c #F9FCFF",
"8 	c #C7E3FF",
"9 	c #44A1FF",
"0 	c #B4D9FF",
"a 	c #E6F3FF",
"b 	c #52A9FF",
"c 	c #ACD5FF",
"d 	c #EAF5FF",
"e 	c #4CA5FF",
"f 	c #3299FF",
"g 	c #8BC5FF",
"h 	c #D8EBFF",
"i 	c #3A9DFF",
"j 	c #4BA5FF",
"k 	c #F5FAFF",
"l 	c #9FCFFF",
"m 	c #3294F7",
"n 	c #B9DCFF",
"o 	c #F7FBFF",
"p 	c #45A2FF",
"q 	c #41A0FF",
"r 	c #2876C4",
"s 	c #82C1FF",
"t 	c #2A7ED2",
"u 	c #B3D9FF",
"v 	c #3B9DFF",
"w 	c #2E88E3",
"x 	c #CCE5FF",
"y 	c #4FA7FF",
"z 	c #2E8AE7",
"A 	c #D0E7FF",
"B 	c #2B84DC",
"C 	c #C0DFFF",
"D 	c #42A1FF",
"E 	c #000000",
"F 	c #2774C1",
"G 	c #99CCFF",
"H 	c #1C538A",
"I 	c #AAD5FF",
"J 	c #061320",
"K 	c #3397FB",
"L 	c #DCEDFF",
"M 	c #61B0FF",
"N 	c #2777C7",
"O 	c #73B9FF",
"P 	c #C8E3FF",
"Q 	c #0E2842",
"R 	c #BDDEFF",
"S 	c #F6FBFF",
"T 	c #2265A8",
"U 	c #E1F0FF",
"V 	c #81C0FF",
"W 	c #020406",
"X 	c #2B80D6",
"Y 	c #4DA6FF",
"Z 	c #8DC6FF",
"` 	c #06111C",
" .	c #2E88E2",
"..	c #46A3FF",
"+.	c #CEE7FF",
"@.	c #7EBFFF",
"#.	c #081522",
"$.	c #2C84DC",
"%.	c #93C9FF",
"&.	c #CDE6FF",
"*.	c #51A8FF",
"=.	c #3399FE",
"-.	c #02060A",
";.	c #246DB6",
">.	c #B1D8FF",
",.	c #D9ECFF",
"'.	c #75BAFF",
").	c #3195F7",
"!.	c #153D67",
"~.	c #2F8CE9",
"{.	c #8FC7FF",
"].	c #D5EAFF",
"^.	c #ADD6FF",
"/.	c #5DAEFF",
"(.	c #3397FC",
"_.	c #2B82D7",
":.	c #1D558E",
"<.	c #2F8BE8",
"[.	c #43A1FF",
"}.	c #72B9FF",
"|.	c #F4F9FF",
"1.	c #98CBFF",
"2.	c #4EA7FF",
"3.	c #3296F9",
"4.	c #2675C3",
"5.	c #000202",
"6.	c #16426E",
"7.	c #2775C2",
"8.	c #308FEF",
"9.	c #6AB5FF",
"0.	c #ECF5FF",
"a.	c #94C9FF",
"b.	c #409FFF",
"c.	c #3296FA",
"d.	c #2A80D5",
"e.	c #1E5B98",
"f.	c #040A11",
"g.	c #2C85DE",
"h.	c #E2F1FF",
"i.	c #389BFE",
"j.	c #184A7B",
"k.	c #040A12",
"l.	c #081726",
"m.	c #62B1FF",
"n.	c #3298FD",
"o.	c #103150",
"p.	c #47A3FF",
"q.	c #5BADFF",
"r.	c #256FB9",
"s.	c #3295F9",
"t.	c #256EB7",
"u.	c #3191F1",
"v.	c #1F5E9C",
"w.	c #1C538B",
"x.	c #1D568F",
"y.	c #2E87E1",
"z.	c #1A4C80",
"                                                                                                ",
"                                    . + @ @ @ @ @ @ @ @ @ @ @ #                                 ",
"                              # @ @ @ @ $ % & * = - ; > , ' @ @ @ @ #                           ",
"                            @ @ @ ) ! ~ { ] ] ] ] ] ] ] ] ^ / ( _ $ @ @ .                       ",
"                        @ @ @ : < [ ] ] ] ] ] ] ] ] ] ] ] ] ] ] ] } | 1 @ @ @                   ",
"                      @ @ 2 3 ] ] ] ] ] ] ] ] ] ] ] ] ] ] ] ] ] ] ] ] 4 5 + @ @                 ",
"                  @ @ @ 6 7 ] ] ] ] ] ] ] ] ] ] ] ] ] ] ] ] ] ] ] ] ] ] ] 8 9 @ @               ",
"                  @ $ 0 ] ] ] ] ] ] ] ] ] ] ] ] ] ] ] ] ] ] ] ] ] ] ] ] ] ] a b @ @             ",
"                @ @ c ] ] ] ] ] ] ] ] ] ] ] ] ] ] ] ] ] ] ] ] ] ] ] ] ] ] ] ] d e @ f           ",
"              @ @ g ] ] ] ] ] ] ] ] ] ] ] ] ] ] ] ] ] ] ] ] ] ] ] ] ] ] ] ] ] ] h i @           ",
"              @ j k ] ] ] ] ] ] ] ] ] ] ] ] ] ] ] ] ] ] ] ] ] ] ] ] ] ] ] ] ] ] ] l @ @         ",
"            m @ n ] ] ] ] ] ] ] ] ] ] ] ] ] ] ] ] ] ] ] ] ] ] ] ] ] ] ] ] ] ] ] ] o p @         ",
"            @ q 7 ] ] ] ] ] ] ] ] ] ] ] ] ] ] ] ] ] ] ] ] ] ] ] ] ] ] ] ] ] ] ] ] ] | @ #       ",
"          r @ s ] ] ] ] ] ] ] ] ] ] ] ] ] ] ] ] ] ] ] ] ] ] ] ] ] ] ] ] ] ] ] ] ] ] h @ @       ",
"          t @ u ] ] ] ] ] ] ] ] ] ] ] ] ] ] ] ] ] ] ] ] ] ] ] ] ] ] ] ] ] ] ] ] ] ] [ v @       ",
"          w @ x ] ] ] ] ] ] ] ] ] ] ] ] ] ] ] ] ] ] ] ] ] ] ] ] ] ] ] ] ] ] ] ] ] ] ] y @       ",
"          z @ A ] ] ] ] ] ] ] ] ] ] ] ] ] ] ] ] ] ] ] ] ] ] ] ] ] ] ] ] ] ] ] ] ] ] ] b @       ",
"          B @ C ] ] ] ] ] ] ] ] ] ] ] ] ] ] ] ] ] ] ] ] ] ] ] ] ] ] ] ] ] ] ] ] ] ] ] D @       ",
"        E F @ G ] ] ] ] ] ] ] ] ] ] ] ] ] ] ] ] ] ] ] ] ] ] ] ] ] ] ] ] ] ] ] ] ] ] } @ @       ",
"        E H @ , ] ] ] ] ] ] ] ] ] ] ] ] ] ] ] ] ] ] ] ] ] ] ] ] ] ] ] ] ] ] ] ] ] ] I @ +       ",
"          J K + L ] ] ] ] ] ] ] ] ] ] ] ] ] ] ] ] ] ] ] ] ] ] ] ] ] ] ] ] ] ] ] ] ] M @         ",
"          E N @ O ] ] ] ] ] ] ] ] ] ] ] ] ] ] ] ] ] ] ] ] ] ] ] ] ] ] ] ] ] ] ] ] P @ @         ",
"          E Q K @ R ] ] ] ] ] ] ] ] ] ] ] ] ] ] ] ] ] ] ] ] ] ] ] ] ] ] ] ] ] ] S % @ @         ",
"            E T @ q U ] ] ] ] ] ] ] ] ] ] ] ] ] ] ] ] ] ] ] ] ] ] ] ] ] ] ] ] ] V @ @           ",
"            E W X @ Y a ] ] ] ] ] ] ] ] ] ] ] ] ] ] ] ] ] ] ] ] ] ] ] ] ] ] ^ Z @ @             ",
"              E `  .@ ..+.] ] ] ] ] ] ] ] ] ] ] ] ] ] ] ] ] ] ] ] ] ] ] ] S @.@ @               ",
"              E E #.$.@ $ %.7 ] ] ] ] ] ] ] ] ] ] ] ] ] ] ] ] ] ] ] ] ] &.*.@ =.                ",
"                E E -.;.=.@ e >.7 ] ] ] ] ] ] ] ] ] ] ] ] ] ] ] ] ] ,.'.@ @ ).                  ",
"                  E E E !.~.@ @ p {.].[ ] ] ] ] ] ] ] ] ] ] ] a ^./.@ @ (._.                    ",
"                      E E -.:.<.@ @ @ [.}.| U ] ] ] ] ] |.1.2.@ @ @ 3.4.                        ",
"                        E E E 5.6.7.8.@ @ @ 9.] ] ] 0.a.b.@ @ c.d.e.                            ",
"                            E E E E f.g.@ v P ] h.- i.@ @ B j.k.                                ",
"                                  l. .@ 9 ].~ m.@ @ n.N o.                                      ",
"                                  @ @ p.a.q.@ @ c.r.                                            ",
"                                @ @ @ 1 @ @ s.t.                                                ",
"                              @ @ @ @ @ u.v.                                                    ",
"                            @ @ @ @ ~.w.                                                        ",
"                          @ @ @ <.x.                                                            ",
"                          =.y.z.                                                                ",
"                                                                                                ",
"                                                                                                ",
"                                                                                                ",
"                                                                                                "};
